<svg xmlns="http://www.w3.org/2000/svg" width="64" height="64" fill="none" viewBox="0 0 64 64">
  <g class="all products">
    <rect width="63.218" height="63.218" fill="#ECEFF7" class="Rectangle 38" rx="10"/>
    <g class="Stockholm-icons / Layout / Layout-grid">
      <rect width="5.057" height="5.057" x="21.494" y="21.494" fill="#020076" class="Rectangle 7" opacity=".3" rx="1"/>
      <path fill="#020076" fill-rule="evenodd" d="M30.08 21.494a1 1 0 00-1 1v3.058a1 1 0 001 1h3.058a1 1 0 001-1v-3.058a1 1 0 00-1-1H30.08zm-7.586 7.587a1 1 0 00-1 1v3.057a1 1 0 001 1h3.058a1 1 0 001-1V30.08a1 1 0 00-1-1h-3.058zm6.587 1a1 1 0 011-1h3.057a1 1 0 011 1v3.057a1 1 0 01-1 1H30.08a1 1 0 01-1-1V30.08zm8.586-8.587a1 1 0 00-1 1v3.058a1 1 0 001 1h3.057a1 1 0 001-1v-3.058a1 1 0 00-1-1h-3.057zm-1 8.587a1 1 0 011-1h3.057a1 1 0 011 1v3.057a1 1 0 01-1 1h-3.057a1 1 0 01-1-1V30.08zm-14.173 6.586a1 1 0 00-1 1v3.057a1 1 0 001 1h3.058a1 1 0 001-1v-3.057a1 1 0 00-1-1h-3.058zm6.587 1a1 1 0 011-1h3.057a1 1 0 011 1v3.057a1 1 0 01-1 1H30.08a1 1 0 01-1-1v-3.057zm8.586-1a1 1 0 00-1 1v3.057a1 1 0 001 1h3.057a1 1 0 001-1v-3.057a1 1 0 00-1-1h-3.057z" class="Combined Shape" clip-rule="evenodd"/>
    </g>
  </g>
</svg>
