<svg xmlns="http://www.w3.org/2000/svg" width="127" height="36" fill="none" viewBox="0 0 127 36">
  <path fill="#fff" d="M26.702 0a14.392 14.392 0 00-3.59.456s-6.703 1.663-14.09 8.56c0 0-3.521 3.571-6.016 8.17 0 0-2.593 4.794-2.984 8.805 0 0-.392 4.5 2.152 6.8 0 0 2.935 2.69 9.344 2.152 0 0 4.01-.489 8.365-3.228 0 0 2.103-1.37 3.473-2.642 0 0-.636 2.3.293 3.962 0 0 .88 1.566 2.886 1.908 0 0 1.468.294 3.572-.489 0 0 1.32-.587 2.2-1.027 0 0 1.81-.979 3.572-2.348 0 0-.343 1.37.44 2.543 0 0 .93 1.321 2.642 1.468 0 0 4.598.342 11.007-7.534l-4.501 7.24 4.11-.048 3.57-6.164s3.718-6.36 4.5-7.142c0 0 1.909-2.544 4.795-3.131l1.908.147s.782.391.782 1.272l-1.418-.245s-.832.098-1.272.978c0 0-.392.832-.196 1.663 0 0 .245.685.88.93l.44.147 1.42-.196s2.494-.93 5.919-5.234l-.783 1.418-2.886 4.941L63.86 30.1s-.978 1.957-.538 3.131c0 0 .44 1.125 1.908 1.419l3.18-.245s1.81-.538 3.277-1.81l2.104-1.712s2.544-2.152 4.843-4.696l-.147.195s-2.006 3.67-2.348 4.892c0 0-.783 2.593 1.027 3.62l2.055.196s1.712-.245 3.424-1.468l2.788-2.397s2.397-2.25 3.67-3.864c0 0-.637 1.467-.783 2.543 0 0-.49 3.425 2.69 4.795l2.984.244s1.174-.098 2.984-.734c0 0 4.207-1.37 10.126-6.8 0 0 2.984-2.739 5.088-5.185L104.756 34.7h3.669l2.739-4.599 3.523-5.723s2.005-3.18 5.674-5.235c0 0 1.468-.88 2.593-1.076 0 0 1.174-.244 1.418.343 0 0-1.663-.343-2.054 1.37 0 0-.391 1.712.978 2.25 0 0 1.028.342 1.859-.245 0 0 .734-.538.979-1.565 0 0 .195-1.028-.294-1.761 0 0-.587-.88-1.957-.979 0 0-1.516-.049-4.549 1.957 0 0-2.25 1.468-3.18 2.397l2.495-4.256h-3.718s-3.522 5.968-9.735 11.105c0 0-6.066 4.94-9.49 5.087 0 0-3.326.245-3.669-2.3 0 0-.195-1.516.685-3.668 0 0 2.055.196 4.794-.685 0 0 2.593-.831 4.745-2.299 0 0 2.3-1.565 3.131-3.229 0 0 .978-1.858-.147-3.424 0 0-2.054-2.006-6.506-.147 0 0-4.598 1.908-8.022 6.458l-.881 1.32-.098.147-2.446 2.837-2.495 2.495s-3.032 2.984-4.549 2.104c0 0-.587-.392-.587-1.321 0 0 0-.93.685-2.055l7.093-12.327h-3.18S82.5 20.56 80.444 23.3c0 0-4.012 5.333-8.365 8.415 0 0-2.984 2.299-4.648 1.516 0 0-.733-.342-.684-1.272 0 0 .048-1.027 1.027-2.446l6.946-11.838 3.865-.049.489-.49h-3.913l4.158-7.386-3.523.049s-2.446 4.158-4.304 6.653c0 0-3.425 4.5-6.262 5.723 0 0 .49-.636.538-1.614l-.049-.783s-.195-1.027-1.174-1.516l-.88-.245-1.664.147s-1.956.44-3.766 2.006l1.516-2.544H56.23s-3.18 5.674-7.338 10.517c0 0-5.43 6.262-8.414 5.528 0 0-.88-.44-.93-1.516 0 0 0-1.076.93-2.593l7.093-11.985-3.522.049-1.125 1.957L42.19 21s.147-.44 0-1.37c0 0-.293-2.2-2.397-2.641l-1.663-.147s-4.207-.049-9 4.158c0 0-3.278 2.935-5.773 7.387 0 0-4.99 4.647-10.273 5.675 0 0-4.696.978-6.702-1.126 0 0-2.201-2.25-2.201-6.163 0 0 .049-4.648 3.375-10.958 0 0 3.522-5.185 5.675-7.533 0 0 5.479-6.017 11.153-7.534 0 0 4.647-1.223 7.24.88 0 0 2.201 1.81 2.397 5.48l1.272-2.153s1.614-2.544 3.033-4.011c0 0-1.32.587-2.935.782 0 0-2.006.245-2.984-.342 0 0-2.18-1.376-5.704-1.385zM38.65 17.287c1.433.007 2.17.681 2.17.681 1.713 1.566.343 4.5.343 4.5-2.642 5.48-6.506 8.806-6.506 8.806l-2.348 1.663c-3.669 1.81-5.234.539-5.234.539-1.272-1.077-.734-3.523-.734-3.523.342-1.663 1.712-4.06 1.712-4.06l2.642-3.864c2.397-2.642 5.136-4.012 5.136-4.012 1.127-.555 2.068-.734 2.819-.73zm62.929.43c.049 0 .098.002.145.007 0 0 .783.098 1.125.489 0 0 .343.49.245 1.468 0 0-.245 2.592-3.13 5.038 0 0-3.278 2.788-7.094 2.69l.734-1.516s1.663-3.228 4.109-5.723c0 0 2.341-2.434 3.866-2.452z"/>
  <path fill="#fff" d="M86.705 12.245s0 .636.49 1.125c0 0 .44.44 1.125.44 0 0 .636 0 1.076-.44 0 0 .44-.49.44-1.125l-.44-1.126s-.49-.44-1.076-.44c0 0-.685 0-1.126.44 0 0-.489.44-.489 1.126z"/>
</svg>
