<svg xmlns="http://www.w3.org/2000/svg" width="64" height="64" fill="none" viewBox="0 0 64 64">
  <rect width="63.218" height="63.218" fill="#ECEFF7" rx="10"/>
  <path fill="#020076" d="M35.5 22.25h-4.375L29.875 21h-6.25l-1.25 1.25H18v2.5h17.5v-2.5zM36.75 31c-.875 0-1.712.125-2.5.363V26h-15v15c0 1.375 1.125 2.5 2.5 2.5h7.1a8.749 8.749 0 0016.65-3.75A8.744 8.744 0 0036.75 31zm0 15c-3.45 0-6.25-2.8-6.25-6.25s2.8-6.25 6.25-6.25S43 36.3 43 39.75 40.2 46 36.75 46z"/>
  <path fill="#A6A7D0" d="M37.375 34.75H35.5V41l4.5 2.625 1-1.5L37.375 40v-5.25z"/>
</svg>
