<svg xmlns="http://www.w3.org/2000/svg" width="118" height="118" fill="none" viewBox="0 0 118 118">
  <path fill="#0081F8" d="M59 9.833a49.167 49.167 0 100 98.333 49.167 49.167 0 000-98.333zm0 88.5a39.333 39.333 0 110-78.666 39.333 39.333 0 010 78.666z"/>
  <path fill="#0081F8" d="M72.324 45.676a4.916 4.916 0 00-6.981 0L59 52.067l-6.343-6.391a4.937 4.937 0 10-6.981 6.981L52.068 59l-6.392 6.342a4.918 4.918 0 000 6.982 4.918 4.918 0 006.981 0L59 65.932l6.343 6.392a4.918 4.918 0 006.981 0 4.917 4.917 0 000-6.982L65.933 59l6.391-6.343a4.916 4.916 0 000-6.981z"/>
</svg>
