<svg xmlns="http://www.w3.org/2000/svg" width="64" height="66" fill="none" viewBox="0 0 64 66">
  <rect width="63.218" height="65.599" x=".379" fill="#020076" rx="10"/>
  <rect width="8.851" height="9.184" x="21.873" y="22.304" fill="#DEE1E6" rx="1.5"/>
  <path fill="#DEE1E6" fill-rule="evenodd" d="M33.253 23.804a1.5 1.5 0 011.5-1.5h5.85a1.5 1.5 0 011.5 1.5v6.184a1.5 1.5 0 01-1.5 1.5h-5.85a1.5 1.5 0 01-1.5-1.5v-6.184zm-11.38 11.808a1.5 1.5 0 011.5-1.5h5.851a1.5 1.5 0 011.5 1.5v6.184a1.5 1.5 0 01-1.5 1.5h-5.85a1.5 1.5 0 01-1.5-1.5v-6.184zm12.88-1.5a1.5 1.5 0 00-1.5 1.5v6.184a1.5 1.5 0 001.5 1.5h5.85a1.5 1.5 0 001.5-1.5v-6.184a1.5 1.5 0 00-1.5-1.5h-5.85z" clip-rule="evenodd" opacity=".3"/>
  <path fill="#84E8F4" fill-rule="evenodd" d="M35.256 0h18.342c5.523 0 10 4.477 10 10v17.707a21.375 21.375 0 01-6.954 1.157c-12.22 0-22.127-10.28-22.127-22.96 0-2.041.257-4.02.739-5.904z" clip-rule="evenodd"/>
</svg>
