<svg xmlns="http://www.w3.org/2000/svg" width="19" height="22" fill="none" viewBox="0 0 19 22">
  <path fill="#25396F" d="M15.994 9.43l.5.01-.5-.01zm.052-2.102l.5.024V7.34l-.5-.01zm-6.05-6.326l-.01.5.01-.5zM3.671 7.047l-.5-.011v.007l.5.004zM3.628 9.15l-.5-.011.5.011zm-2.28 5.914l.358.349-.358-.35zm.861 2.098l.011-.5-.011.5zm14.838.336l-.011.5.011-.5zm-4.474 1.383l.48.143.186-.628-.655-.015-.01.5zm-5.696-.128l.011-.5-.658-.015.162.639.485-.124zm11.5-3.646c-.38-.425-.847-.882-1.232-1.708-.384-.824-.696-2.043-.651-3.96l-1-.022c-.047 2.036.283 3.414.744 4.405.46.987 1.043 1.56 1.392 1.95l.746-.665zM16.493 9.44a1498.17 1498.17 0 01.042-1.744l.006-.24.002-.074.001-.023a.27.27 0 010-.008l-.999-.048a520.2 520.2 0 00-.052 2.114l1 .023zm.052-2.102A6.692 6.692 0 0010.008.502l-.023 1a5.692 5.692 0 015.561 5.816l1 .02zM10.008.502a6.686 6.686 0 00-6.836 6.534l1 .022a5.686 5.686 0 015.813-5.557l.023-1zM3.17 7.043c0 .1-.04 1.985-.043 2.097l1 .022c.002-.106.043-2.002.043-2.111l-1-.008zM3.128 9.14c-.042 1.917-.408 3.12-.83 3.925-.422.808-.91 1.242-1.308 1.65l.716.699c.366-.375.974-.92 1.479-1.885.506-.968.898-2.33.943-4.367l-1-.022zM.99 14.715c-1.017 1.042-.365 2.914 1.208 2.948l.022-1c-.65-.014-.955-.798-.514-1.25l-.716-.698zm1.208 2.948l14.838.335.023-1-14.839-.335-.022 1zm14.839.335a1.755 1.755 0 001.597-.976c.29-.576.269-1.32-.256-1.913l-.749.663a.69.69 0 01.112.8.755.755 0 01-.683.427l-.021 1zM9.666 21.5a3.457 3.457 0 003.386-2.474l-.958-.286a2.456 2.456 0 01-2.407 1.76l-.021 1zm2.918-3.117l-5.696-.128-.022 1 5.696.128.023-1zm-6.192.495c.374 1.467 1.676 2.585 3.273 2.622l.023-1a2.47 2.47 0 01-2.327-1.868l-.969.247z"/>
</svg>
