<svg xmlns="http://www.w3.org/2000/svg" width="21" height="21" fill="none" viewBox="0 0 21 21">
  <g class="Group">
    <g class="Group_2">
      <path fill="#25396F" d="M20.847 20.11l-3.606-3.606a9.845 9.845 0 002.55-6.608C19.792 4.439 15.353 0 9.897 0 4.439 0 0 4.44 0 9.896s4.44 9.896 9.896 9.896a9.844 9.844 0 006.608-2.551l3.607 3.606a.52.52 0 00.736 0 .52.52 0 000-.736zM9.896 18.75c-4.882 0-8.854-3.972-8.854-8.854s3.972-8.854 8.854-8.854 8.854 3.972 8.854 8.854-3.972 8.854-8.854 8.854z" class="Vector"/>
    </g>
  </g>
</svg>
