<svg xmlns="http://www.w3.org/2000/svg" width="43" height="43" fill="none" viewBox="0 0 43 43">
  <rect width="41" height="41" x="1.256" y=".747" fill="#F7F7F9" rx="10" transform="rotate(.71 1.256 .747)"/>
  <path fill="#6F767E" d="M22.05 17.506a3.5 3.5 0 10-.087 7 3.5 3.5 0 00.087-7zm-.069 5.5a2 2 0 11.05-4 2 2 0 01-.05 4z"/>
  <path fill="#6F767E" d="M32.016 19.63a2.76 2.76 0 01-1.808-4.522l.012-.015-1.057-1.069-1.046-1.073h-.005a2.72 2.72 0 01-1.743.609 2.76 2.76 0 01-2.728-2.525v-.01l-3.01-.037v.008a2.76 2.76 0 01-2.791 2.458 2.72 2.72 0 01-1.732-.65l-.01-.012-1.074 1.057-1.073 1.047.011.01a2.76 2.76 0 01-1.92 4.476h-.017l-.037 3.01h.01a2.761 2.761 0 011.808 4.513v.005l1.047 1.073 1.047 1.083.006-.007a2.72 2.72 0 011.747-.606 2.76 2.76 0 012.73 2.526v.008l3.009.037v-.009a2.76 2.76 0 014.518-1.808h.005l1.073-1.047 1.083-1.046a2.76 2.76 0 011.916-4.474l.037-3.01h-.008zm-1.515 1.864a4.264 4.264 0 00-2.288 5.332l-.272.263-.261.255a4.185 4.185 0 00-1.479-.285 4.256 4.256 0 00-3.922 2.451l-.745-.009a4.26 4.26 0 00-5.354-2.295l-.258-.266-.259-.265a4.262 4.262 0 00-2.16-5.394l.008-.746a4.26 4.26 0 002.298-5.355l.272-.262.258-.255a4.257 4.257 0 005.404-2.161l.746.01a4.258 4.258 0 003.861 2.548 4.183 4.183 0 001.484-.25l.26.271.258.263a4.263 4.263 0 002.158 5.398l-.01.752z"/>
</svg>
