<svg xmlns="http://www.w3.org/2000/svg" width="64" height="66" fill="none" viewBox="0 0 64 66">
  <rect width="63.218" height="65.599" fill="#020076" rx="10"/>
  <path fill="#DEE1E6" d="M23.406 22.529h10.107a1.5 1.5 0 01.969.355l6.274 5.306a1.5 1.5 0 01.531 1.146v16.057c0 2.264-.026 2.423-2.348 2.423H23.406c-2.323 0-2.348-.16-2.348-2.423v-20.44c0-2.265.025-2.424 2.348-2.424z" opacity=".3"/>
  <rect width="11.379" height="1.264" x="24.851" y="41.494" fill="#DEE1E6" rx=".632"/>
  <path fill="#DEE1E6" d="M36.724 31.292a1.5 1.5 0 010 2.122l-5.843 5.843a1.5 1.5 0 01-1.016.439l-1.8.054a1.5 1.5 0 01-1.544-1.522l.026-1.724a1.5 1.5 0 01.439-1.038l5.895-5.896a1.5 1.5 0 012.121 0l1.722 1.722z"/>
  <path fill="#84E8F4" fill-rule="evenodd" d="M34.876 0h18.342c5.523 0 10 4.477 10 10v17.707a21.375 21.375 0 01-6.954 1.157c-12.22 0-22.126-10.28-22.126-22.96 0-2.041.257-4.02.738-5.904z" clip-rule="evenodd"/>
</svg>
