<svg xmlns="http://www.w3.org/2000/svg" width="32" height="31" fill="none" viewBox="0 0 32 31">
  <rect width="31" height="31" x=".049" fill="#51459E" rx="10"/>
  <path fill="#fff" d="M13.753 14.933v3.78a.473.473 0 00.945 0v-3.78a.473.473 0 00-.945 0zm2.363-.473a.473.473 0 01.473.473v3.78a.473.473 0 01-.946 0v-3.78a.473.473 0 01.473-.473zm.945-2.363h2.835a.473.473 0 010 .946h-.522l-.711 6.404a2.363 2.363 0 01-2.349 2.102h-2.287a2.362 2.362 0 01-2.348-2.102l-.712-6.404h-.522a.472.472 0 110-.945h2.835a1.89 1.89 0 013.781 0zm-1.89-.945a.945.945 0 00-.945.946h1.89a.945.945 0 00-.945-.946zm-3.252 1.89l.699 6.3a1.418 1.418 0 001.41 1.262h2.286a1.418 1.418 0 001.409-1.261l.7-6.3H11.92z"/>
</svg>
