<svg xmlns="http://www.w3.org/2000/svg" width="64" height="64" fill="none" viewBox="0 0 64 64">
  <rect width="63.218" height="63.218" fill="#ECEFF7" rx="10"/>
  <rect width="8.851" height="9.184" x="22" y="22" fill="#A6A7D0" rx="1.5"/>
  <path fill="#020076" fill-rule="evenodd" d="M33.38 23.5a1.5 1.5 0 011.5-1.5h5.85a1.5 1.5 0 011.5 1.5v6.184a1.5 1.5 0 01-1.5 1.5h-5.85a1.5 1.5 0 01-1.5-1.5V23.5zM22 35.308a1.5 1.5 0 011.5-1.5h5.85a1.5 1.5 0 011.5 1.5v6.184a1.5 1.5 0 01-1.5 1.5H23.5a1.5 1.5 0 01-1.5-1.5v-6.184zm12.88-1.5a1.5 1.5 0 00-1.5 1.5v6.184a1.5 1.5 0 001.5 1.5h5.85a1.5 1.5 0 001.5-1.5v-6.184a1.5 1.5 0 00-1.5-1.5h-5.85z" clip-rule="evenodd"/>
</svg>
