<svg xmlns="http://www.w3.org/2000/svg" width="64" height="66" fill="none" viewBox="0 0 64 66">
  <rect width="63.218" height="65.599" x=".379" fill="#020076" rx="10"/>
  <path fill="#84E8F4" fill-rule="evenodd" d="M35.256 0h18.342c5.523 0 10 4.477 10 10v17.707a21.375 21.375 0 01-6.954 1.157c-12.22 0-22.127-10.28-22.127-22.96 0-2.041.257-4.02.739-5.904z" clip-rule="evenodd"/>
  <rect width="5.057" height="5.057" x="22" y="23" fill="#DEE1E6" opacity=".3" rx="1"/>
  <path fill="#EBEBEB" fill-rule="evenodd" d="M30.586 23.494a1 1 0 00-1 1v3.058a1 1 0 001 1h3.058a1 1 0 001-1v-3.058a1 1 0 00-1-1h-3.058zM23 31.081a1 1 0 00-1 1v3.057a1 1 0 001 1h3.058a1 1 0 001-1V32.08a1 1 0 00-1-1H23zm6.586 1a1 1 0 011-1h3.058a1 1 0 011 1v3.057a1 1 0 01-1 1h-3.058a1 1 0 01-1-1V32.08zm8.586-8.587a1 1 0 00-1 1v3.058a1 1 0 001 1h3.058a1 1 0 001-1v-3.058a1 1 0 00-1-1h-3.058zm-1 8.587a1 1 0 011-1h3.058a1 1 0 011 1v3.057a1 1 0 01-1 1h-3.058a1 1 0 01-1-1V32.08zM23 38.666a1 1 0 00-1 1v3.057a1 1 0 001 1h3.058a1 1 0 001-1v-3.057a1 1 0 00-1-1H23zm6.586 1a1 1 0 011-1h3.058a1 1 0 011 1v3.057a1 1 0 01-1 1h-3.058a1 1 0 01-1-1v-3.057zm8.586-1a1 1 0 00-1 1v3.057a1 1 0 001 1h3.058a1 1 0 001-1v-3.057a1 1 0 00-1-1h-3.058z" clip-rule="evenodd"/>
</svg>
